name C:\Users\u0101727\Documents\MyRepositories\upper-imu-dc\Results\main_tracking\Case_44\FLX01_angularVelocities_bodyFrame.mot
datacolumns 4
datarows 141
range 5.01000000 6.41000000
endheader 
time	radius_imu_x	radius_imu_y	radius_imu_z	
          5.01000000	          1.29464285	         -0.29384181	          0.52432857	
          5.02000000	          1.26481225	         -0.27898986	          0.54692876	
          5.03000000	          1.23488385	         -0.26320547	          0.56973531	
          5.04000000	          1.20525320	         -0.24631133	          0.59239012	
          5.05000000	          1.17649325	         -0.22822693	          0.61474976	
          5.06000000	          1.15093681	         -0.20740698	          0.63673165	
          5.07000000	          1.12838105	         -0.18180138	          0.65962329	
          5.08000000	          1.10068832	         -0.17648134	          0.67701786	
          5.09000000	          1.08574628	         -0.15340208	          0.69436440	
          5.10000000	          1.06525091	         -0.14022425	          0.71491018	
          5.11000000	          1.09783913	         -0.06177158	          0.75840942	
          5.12000000	          1.08714920	         -0.04507156	          0.81190464	
          5.13000000	          1.08411981	         -0.01162775	          0.84687401	
          5.14000000	          1.07728183	          0.02014234	          0.88196410	
          5.15000000	          1.07131093	          0.05495077	          0.91435135	
          5.16000000	          1.06475379	          0.09116168	          0.94453810	
          5.17000000	          1.05790931	          0.12883001	          0.97245853	
          5.18000000	          1.05105296	          0.16750365	          0.99810659	
          5.19000000	          1.04437829	          0.20675750	          1.02142366	
          5.20000000	          1.03786935	          0.24620134	          1.04242440	
          5.21000000	          1.03147871	          0.28552931	          1.06112394	
          5.22000000	          1.02514639	          0.32437621	          1.07750426	
          5.23000000	          1.01883812	          0.36239591	          1.09156038	
          5.24000000	          1.01254110	          0.39929614	          1.10330474	
          5.25000000	          1.00624651	          0.43482350	          1.11275923	
          5.26000000	          0.99995065	          0.46880013	          1.11997067	
          5.27000000	          0.99365700	          0.50111258	          1.12500517	
          5.28000000	          0.98739712	          0.53168972	          1.12793370	
          5.29000000	          0.98124070	          0.56049724	          1.12883095	
          5.30000000	          0.97527851	          0.58753349	          1.12778050	
          5.31000000	          0.96960810	          0.61282684	          1.12487564	
          5.32000000	          0.96432778	          0.63643122	          1.12021377	
          5.33000000	          0.95952780	          0.65842316	          1.11389118	
          5.34000000	          0.95527966	          0.67890097	          1.10600178	
          5.35000000	          0.95162817	          0.69798672	          1.09663727	
          5.36000000	          0.94858689	          0.71582797	          1.08588688	
          5.37000000	          0.94613849	          0.73259560	          1.07383736	
          5.38000000	          0.94424096	          0.74848107	          1.06057431	
          5.39000000	          0.94283672	          0.76369431	          1.04618509	
          5.40000000	          0.94186217	          0.77846123	          1.03076228	
          5.41000000	          0.94125539	          0.79302230	          1.01440646	
          5.42000000	          0.94095955	          0.80763192	          0.99722744	
          5.43000000	          0.94092234	          0.82255753	          0.97934365	
          5.44000000	          0.94109338	          0.83807791	          0.96088047	
          5.45000000	          0.94142164	          0.85447975	          0.94196829	
          5.46000000	          0.94185433	          0.87205208	          0.92274067	
          5.47000000	          0.94233714	          0.89107896	          0.90333266	
          5.48000000	          0.94281457	          0.91183165	          0.88387929	
          5.49000000	          0.94322966	          0.93456130	          0.86451402	
          5.50000000	          0.94352290	          0.95949271	          0.84536739	
          5.51000000	          0.94363069	          0.98681970	          0.82656567	
          5.52000000	          0.94348405	          1.01670129	          0.80822992	
          5.53000000	          0.94300828	          1.04925799	          0.79047518	
          5.54000000	          0.94212363	          1.08456760	          0.77340994	
          5.55000000	          0.94074627	          1.12266024	          0.75713542	
          5.56000000	          0.93878927	          1.16351251	          0.74174469	
          5.57000000	          0.93616403	          1.20704105	          0.72732138	
          5.58000000	          0.93278244	          1.25309633	          0.71393823	
          5.59000000	          0.92856016	          1.30145789	          0.70165587	
          5.60000000	          0.92341975	          1.35183233	          0.69052185	
          5.61000000	          0.91729209	          1.40385467	          0.68056932	
          5.62000000	          0.91011538	          1.45709414	          0.67181517	
          5.63000000	          0.90183261	          1.51106475	          0.66425788	
          5.64000000	          0.89239098	          1.56524024	          0.65787582	
          5.65000000	          0.88174504	          1.61907253	          0.65262772	
          5.66000000	          0.86986297	          1.67201463	          0.64845576	
          5.67000000	          0.85673318	          1.72355012	          0.64528751	
          5.68000000	          0.84236886	          1.77322436	          0.64303651	
          5.69000000	          0.82680838	          1.82067007	          0.64160545	
          5.70000000	          0.81011049	          1.86562150	          0.64088936	
          5.71000000	          0.79234861	          1.90791533	          0.64077595	
          5.72000000	          0.77360193	          1.94747416	          0.64114984	
          5.73000000	          0.75394715	          1.98427943	          0.64189280	
          5.74000000	          0.73345372	          2.01835121	          0.64288166	
          5.75000000	          0.71218220	          2.04971675	          0.64399671	
          5.76000000	          0.69018695	          2.07839432	          0.64512020	
          5.77000000	          0.66752326	          2.10439384	          0.64613606	
          5.78000000	          0.64425131	          2.12770360	          0.64693802	
          5.79000000	          0.62043825	          2.14829932	          0.64742707	
          5.80000000	          0.59615974	          2.16616325	          0.64750865	
          5.81000000	          0.57149732	          2.18129071	          0.64709673	
          5.82000000	          0.54653450	          2.19370415	          0.64611508	
          5.83000000	          0.52135348	          2.20347454	          0.64449704	
          5.84000000	          0.49603134	          2.21073376	          0.64218839	
          5.85000000	          0.47063506	          2.21568065	          0.63914945	
          5.86000000	          0.44521656	          2.21858254	          0.63535568	
          5.87000000	          0.41980764	          2.21976843	          0.63079800	
          5.88000000	          0.39441629	          2.21961669	          0.62548256	
          5.89000000	          0.36902602	          2.21854059	          0.61943002	
          5.90000000	          0.34359859	          2.21697199	          0.61267484	
          5.91000000	          0.31807954	          2.21534332	          0.60526445	
          5.92000000	          0.29240605	          2.21406790	          0.59725819	
          5.93000000	          0.26651656	          2.21352018	          0.58872696	
          5.94000000	          0.24036150	          2.21402015	          0.57975293	
          5.95000000	          0.21391643	          2.21582302	          0.57042699	
          5.96000000	          0.18718863	          2.21911533	          0.56084671	
          5.97000000	          0.16021875	          2.22401586	          0.55111314	
          5.98000000	          0.13308079	          2.23057599	          0.54132544	
          5.99000000	          0.10587573	          2.23878371	          0.53157717	
          6.00000000	          0.07872101	          2.24857386	          0.52195418	
          6.01000000	          0.05174100	          2.25983579	          0.51253382	
          6.02000000	          0.02506679	          2.27241408	          0.50338318	
          6.03000000	         -0.00116952	          2.28611325	          0.49455890	
          6.04000000	         -0.02684516	          2.30070540	          0.48610929	
          6.05000000	         -0.05184151	          2.31593208	          0.47807004	
          6.06000000	         -0.07604794	          2.33151369	          0.47046182	
          6.07000000	         -0.09937585	          2.34716476	          0.46329440	
          6.08000000	         -0.12175354	          2.36260145	          0.45656650	
          6.09000000	         -0.14311650	          2.37754707	          0.45026439	
          6.10000000	         -0.16341292	          2.39174895	          0.44436772	
          6.11000000	         -0.18260381	          2.40499251	          0.43885278	
          6.12000000	         -0.20065641	          2.41710579	          0.43368850	
          6.13000000	         -0.21754460	          2.42795949	          0.42884261	
          6.14000000	         -0.23324008	          2.43745126	          0.42428364	
          6.15000000	         -0.24770828	          2.44551247	          0.41997745	
          6.16000000	         -0.26092134	          2.45210690	          0.41589711	
          6.17000000	         -0.27285950	          2.45720276	          0.41201665	
          6.18000000	         -0.28350156	          2.46077762	          0.40830496	
          6.19000000	         -0.29284454	          2.46281577	          0.40472667	
          6.20000000	         -0.30092565	          2.46330286	          0.40125578	
          6.21000000	         -0.30781013	          2.46222736	          0.39786214	
          6.22000000	         -0.31358156	          2.45962671	          0.39451548	
          6.23000000	         -0.31834011	          2.45555889	          0.39119373	
          6.24000000	         -0.32218983	          2.45012180	          0.38787531	
          6.25000000	         -0.32525345	          2.44347127	          0.38454573	
          6.26000000	         -0.32766240	          2.43578291	          0.38119830	
          6.27000000	         -0.32952891	          2.42723032	          0.37782904	
          6.28000000	         -0.33096143	          2.41799386	          0.37443933	
          6.29000000	         -0.33206422	          2.40826071	          0.37103972	
          6.30000000	         -0.33292138	          2.39820721	          0.36764672	
          6.31000000	         -0.33360037	          2.38802120	          0.36428049	
          6.32000000	         -0.33414557	          2.37790311	          0.36096476	
          6.33000000	         -0.33457748	          2.36805041	          0.35772732	
          6.34000000	         -0.33490882	          2.35866651	          0.35459925	
          6.35000000	         -0.33514065	          2.34994918	          0.35161048	
          6.36000000	         -0.33525292	          2.34207022	          0.34878541	
          6.37000000	         -0.33521754	          2.33516952	          0.34614326	
          6.38000000	         -0.33501360	          2.32934292	          0.34370023	
          6.39000000	         -0.33462730	          2.32462996	          0.34146837	
          6.40000000	         -0.33404823	          2.32101112	          0.33945302	
          6.41000000	         -0.33327110	          2.31841336	          0.33765323	
